<?xml version="1.0" encoding="utf-8"?>
<!-- Generator: Adobe Illustrator 15.1.0, SVG Export Plug-In . SVG Version: 6.00 Build 0)  -->
<!DOCTYPE svg PUBLIC "-//W3C//DTD SVG 1.1//EN" "http://www.w3.org/Graphics/SVG/1.1/DTD/svg11.dtd">
<svg version="1.1" id="Layer_1" xmlns="http://www.w3.org/2000/svg" xmlns:xlink="http://www.w3.org/1999/xlink" x="0px" y="0px"
	 width="100px" height="100px" viewBox="0 0 100 100" enable-background="new 0 0 100 100" xml:space="preserve">
<path stroke="#FFFFFF" stroke-width="0.5" stroke-miterlimit="10" d="M27.835,83.191c-0.676,7.155,4.55,13.916,12.25,15.481
	c8.193,1.665,16.082-3.186,17.621-10.832c1.477-7.332-3.422-14.569-11.051-16.623l0.04-0.029
	c-10.253-2.083-10.154-10.45-10.154-10.45C30.131,68.365,28.049,78.701,27.835,83.191z"/>
<g>
	<g>
		<g enable-background="new    ">
			<g>
				
					<polygon fill="#FFFFFF" stroke="#000000" stroke-width="0.5" stroke-linecap="round" stroke-linejoin="round" stroke-miterlimit="10" points="
					67.222,1.098 65.435,8.968 23.142,20.824 24.928,12.954 				"/>
			</g>
			<g>
				
					<polygon fill="#FFFFFF" stroke="#000000" stroke-width="0.5" stroke-linecap="round" stroke-linejoin="round" stroke-miterlimit="10" points="
					80.416,31.109 78.629,38.979 65.435,8.968 67.222,1.098 				"/>
			</g>
			<g>
				
					<polygon fill="#FFFFFF" stroke="#000000" stroke-width="0.5" stroke-linecap="round" stroke-linejoin="round" stroke-miterlimit="10" points="
					80.416,31.109 78.629,38.979 52.084,47.05 53.87,39.179 				"/>
			</g>
			<g>
				
					<polyline fill="#FFFFFF" stroke="#000000" stroke-width="0.5" stroke-linecap="round" stroke-linejoin="round" stroke-miterlimit="10" points="
					80.64,31.138 78.854,39.008 52.184,47.208 53.97,39.338 				"/>
			</g>
			<g>
				
					<polygon fill="#FFFFFF" stroke="#000000" stroke-width="0.5" stroke-linecap="round" stroke-linejoin="round" stroke-miterlimit="10" points="
					37.982,42.874 36.194,50.745 23.142,20.824 24.928,12.954 				"/>
			</g>
			<g>
				
					<polyline fill="#FFFFFF" stroke="#000000" stroke-width="0.5" stroke-linecap="round" stroke-linejoin="round" stroke-miterlimit="10" points="
					37.782,42.866 35.994,50.736 22.921,20.793 24.708,12.923 				"/>
			</g>
			<g>
				
					<polygon fill="#FFFFFF" stroke="#000000" stroke-width="0.5" stroke-linecap="round" stroke-linejoin="round" stroke-miterlimit="10" points="
					36.476,55.967 36.204,58.643 36.194,50.745 37.982,42.874 				"/>
			</g>
			<g>
				
					<polyline fill="#FFFFFF" stroke="#000000" stroke-width="0.5" stroke-linecap="round" stroke-linejoin="round" stroke-miterlimit="10" points="
					37.782,42.866 36.317,56.079 36.046,58.755 35.994,50.736 				"/>
			</g>
			<g>
				
					<polygon fill="#FFFFFF" stroke="#000000" stroke-width="0.5" stroke-linecap="round" stroke-linejoin="round" stroke-miterlimit="10" points="
					53.87,39.179 52.084,47.05 38.353,59.913 38.623,57.239 				"/>
			</g>
			<g>
				
					<polygon fill="#FFFFFF" stroke="#000000" stroke-width="0.5" stroke-linecap="round" stroke-linejoin="round" stroke-miterlimit="10" points="
					38.623,57.239 38.353,59.913 36.204,58.643 36.476,55.967 				"/>
			</g>
			<g>
				
					<polyline fill="#FFFFFF" stroke="#000000" stroke-width="0.5" stroke-linecap="round" stroke-linejoin="round" stroke-miterlimit="10" points="
					37.982,42.874 24.928,12.954 67.222,1.098 80.416,31.109 53.87,39.179 38.623,57.239 36.476,55.967 				"/>
			</g>
			<g>
				
					<polyline fill="#FFFFFF" stroke="#000000" stroke-width="0.5" stroke-linecap="round" stroke-linejoin="round" stroke-miterlimit="10" points="
					38.728,57.412 38.456,60.088 36.046,58.755 36.317,56.079 				"/>
			</g>
			<g>
				
					<polyline fill="#FFFFFF" stroke="#000000" stroke-width="0.5" stroke-linecap="round" stroke-linejoin="round" stroke-miterlimit="10" points="
					53.97,39.338 52.184,47.208 38.456,60.088 38.623,57.239 				"/>
			</g>
		</g>
	</g>
	<g>
		<g enable-background="new    ">
			<g>
				
					<polygon fill="#FFFFFF" stroke="#000000" stroke-width="0.5" stroke-linecap="round" stroke-linejoin="round" stroke-miterlimit="10" points="
					28.113,24.254 27.649,26.298 23.65,27.419 24.115,25.375 				"/>
			</g>
			<g enable-background="new    ">
				<defs>
					<path id="SVGID_1_" enable-background="new    " d="M22.71,28.201c0.155-0.682,0.311-1.363,0.464-2.045
						c0.068-0.298,0.396-0.628,0.941-0.781l-0.465,2.044C23.106,27.571,22.778,27.902,22.71,28.201z"/>
				</defs>
				<use xlink:href="#SVGID_1_"  overflow="visible" fill="#FFFFFF"/>
				<clipPath id="SVGID_2_">
					<use xlink:href="#SVGID_1_"  overflow="visible"/>
				</clipPath>
				<g clip-path="url(#SVGID_2_)" enable-background="new    ">
					
						<path fill="#FFFFFF" stroke="#000000" stroke-width="0.5" stroke-linecap="round" stroke-linejoin="round" stroke-miterlimit="10" d="
						M24.115,25.375l-0.465,2.044c-0.544,0.152-0.872,0.483-0.94,0.782l0.464-2.045C23.242,25.858,23.57,25.527,24.115,25.375"/>
				</g>
				
					<use xlink:href="#SVGID_1_"  overflow="visible" fill="none" stroke="#000000" stroke-width="0.5" stroke-linecap="round" stroke-linejoin="round" stroke-miterlimit="10"/>
			</g>
			<g enable-background="new    ">
				<defs>
					<path id="SVGID_3_" enable-background="new    " d="M20.498,29.107"/>
				</defs>
				<defs>
					<path id="SVGID_4_" enable-background="new    " d="M20.822,25.63c-0.105,0.466-0.067,0.958,0.14,1.433"/>
				</defs>
				<use xlink:href="#SVGID_3_"  overflow="visible" fill="#FFFFFF"/>
				<use xlink:href="#SVGID_4_"  overflow="visible" fill="#FFFFFF"/>
				<clipPath id="SVGID_5_">
					<use xlink:href="#SVGID_3_"  overflow="visible"/>
				</clipPath>
				<clipPath id="SVGID_6_" clip-path="url(#SVGID_5_)">
					<use xlink:href="#SVGID_4_"  overflow="visible"/>
				</clipPath>
				<g clip-path="url(#SVGID_6_)" enable-background="new    ">
					
						<path fill="#FFFFFF" stroke="#000000" stroke-width="0.5" stroke-linecap="round" stroke-linejoin="round" stroke-miterlimit="10" d="
						M20.803,25.725c-0.027,0.151-0.041,0.305-0.037,0.459"/>
					
						<path fill="#FFFFFF" stroke="#000000" stroke-width="0.5" stroke-linecap="round" stroke-linejoin="round" stroke-miterlimit="10" d="
						M20.302,28.228c-0.003-0.154,0.011-0.308,0.037-0.459"/>
					
						<path fill="#FFFFFF" stroke="#000000" stroke-width="0.5" stroke-linecap="round" stroke-linejoin="round" stroke-miterlimit="10" d="
						M20.766,26.184"/>
					
						<path fill="#FFFFFF" stroke="#000000" stroke-width="0.5" stroke-linecap="round" stroke-linejoin="round" stroke-miterlimit="10" d="
						M20.822,25.63c-0.007,0.032-0.014,0.063-0.019,0.094"/>
					
						<path fill="#FFFFFF" stroke="#000000" stroke-width="0.5" stroke-linecap="round" stroke-linejoin="round" stroke-miterlimit="10" d="
						M20.339,27.769"/>
					
						<path fill="#FFFFFF" stroke="#000000" stroke-width="0.5" stroke-linecap="round" stroke-linejoin="round" stroke-miterlimit="10" d="
						M20.803,25.725"/>
				</g>
				
					<use xlink:href="#SVGID_3_"  overflow="visible" fill="none" stroke="#000000" stroke-width="0.5" stroke-linecap="round" stroke-linejoin="round" stroke-miterlimit="10"/>
				
					<use xlink:href="#SVGID_4_"  overflow="visible" fill="none" stroke="#000000" stroke-width="0.5" stroke-linecap="round" stroke-linejoin="round" stroke-miterlimit="10"/>
			</g>
			<g>
				
					<path fill="#FFFFFF" stroke="#000000" stroke-width="0.5" stroke-linecap="round" stroke-linejoin="round" stroke-miterlimit="10" d="
					M20.962,27.063l4.675,10.706l-0.465,2.044l-4.674-10.706c0,0-0.302-1.717,0.366-3.624"/>
			</g>
			<g>
				
					<polygon fill="#FFFFFF" stroke="#000000" stroke-width="0.5" stroke-linecap="round" stroke-linejoin="round" stroke-miterlimit="10" points="
					34.284,38.387 33.819,40.432 29.822,41.553 30.286,39.509 				"/>
			</g>
			<g>
				
					<path fill="#FFFFFF" stroke="#000000" stroke-width="0.5" stroke-linecap="round" stroke-linejoin="round" stroke-miterlimit="10" d="
					M20.962,27.063c-0.653-1.495,0.371-3.148,2.282-3.683l3.997-1.121l0.872,1.995l-3.998,1.121
					c-0.727,0.203-1.067,0.724-0.919,1.062l4.674,10.706c0.148,0.338,0.819,0.574,1.545,0.371l3.999-1.122l0.871,1.996l-3.998,1.122
					c-1.91,0.535-3.998-0.245-4.649-1.74L20.962,27.063z"/>
			</g>
			<g enable-background="new    ">
				<defs>
					<path id="SVGID_7_" enable-background="new    " d="M30.286,39.509l-0.464,2.044c-1.91,0.535-3.997-0.246-4.65-1.74
						l0.465-2.044C26.289,39.264,28.376,40.044,30.286,39.509z"/>
				</defs>
				<use xlink:href="#SVGID_7_"  overflow="visible" fill="#FFFFFF"/>
				<clipPath id="SVGID_8_">
					<use xlink:href="#SVGID_7_"  overflow="visible"/>
				</clipPath>
				<g clip-path="url(#SVGID_8_)" enable-background="new    ">
					
						<path fill="#FFFFFF" stroke="#000000" stroke-width="0.5" stroke-linecap="round" stroke-linejoin="round" stroke-miterlimit="10" d="
						M30.286,39.509l-0.464,2.044c-0.528,0.148-1.07,0.195-1.592,0.155l0.464-2.044C29.216,39.704,29.758,39.656,30.286,39.509"/>
					
						<path fill="#FFFFFF" stroke="#000000" stroke-width="0.5" stroke-linecap="round" stroke-linejoin="round" stroke-miterlimit="10" d="
						M28.694,39.664l-0.464,2.044c-0.217-0.017-0.431-0.049-0.638-0.096l0.463-2.043C28.264,39.614,28.478,39.646,28.694,39.664"/>
					
						<path fill="#FFFFFF" stroke="#000000" stroke-width="0.5" stroke-linecap="round" stroke-linejoin="round" stroke-miterlimit="10" d="
						M27.1,41.471c-0.144-0.05-0.285-0.108-0.418-0.174l0.463-2.043c0.134,0.064,0.274,0.123,0.419,0.174"/>
					
						<path fill="#FFFFFF" stroke="#000000" stroke-width="0.5" stroke-linecap="round" stroke-linejoin="round" stroke-miterlimit="10" d="
						M27.564,39.427"/>
					
						<path fill="#FFFFFF" stroke="#000000" stroke-width="0.5" stroke-linecap="round" stroke-linejoin="round" stroke-miterlimit="10" d="
						M25.596,40.479c-0.174-0.202-0.319-0.424-0.424-0.666l0.465-2.044c0.105,0.242,0.249,0.465,0.421,0.666"/>
					
						<path fill="#FFFFFF" stroke="#000000" stroke-width="0.5" stroke-linecap="round" stroke-linejoin="round" stroke-miterlimit="10" d="
						M26.058,38.435"/>
				</g>
				
					<use xlink:href="#SVGID_7_"  overflow="visible" fill="none" stroke="#000000" stroke-width="0.5" stroke-linecap="round" stroke-linejoin="round" stroke-miterlimit="10"/>
			</g>
		</g>
	</g>
	
		<line fill="#FFFFFF" stroke="#000000" stroke-width="0.5" stroke-linecap="round" stroke-linejoin="round" stroke-miterlimit="10" x1="52.606" y1="39.536" x2="38.574" y2="42.848"/>
	<g enable-background="new    ">
		<g>
			
				<polygon fill="#FFFFFF" stroke="#000000" stroke-width="0.5" stroke-linecap="round" stroke-linejoin="round" stroke-miterlimit="10" points="
				62.292,12.118 61.87,12.556 60.651,9.689 60.849,8.814 			"/>
		</g>
		<g>
			
				<line fill="#FFFFFF" stroke="#000000" stroke-width="0.5" stroke-linecap="round" stroke-linejoin="round" stroke-miterlimit="10" x1="57.899" y1="16.682" x2="62.292" y2="12.118"/>
		</g>
		<g>
			
				<polygon fill="#FFFFFF" stroke="#000000" stroke-width="0.5" stroke-linecap="round" stroke-linejoin="round" stroke-miterlimit="10" points="
				60.849,8.814 60.651,9.689 50.562,20.568 50.762,19.693 			"/>
		</g>
		<g>
			
				<polygon fill="#FFFFFF" stroke="#000000" stroke-width="0.5" stroke-linecap="round" stroke-linejoin="round" stroke-miterlimit="10" points="
				50.762,19.693 50.562,20.568 35.568,17.211 35.181,16.206 			"/>
		</g>
		<g>
			
				<polygon fill="#FFFFFF" stroke="#000000" stroke-width="0.5" stroke-linecap="round" stroke-linejoin="round" stroke-miterlimit="10" points="
				67.129,23.194 66.931,24.069 60.077,22.889 60.276,22.015 			"/>
		</g>
		<g enable-background="new    ">
			<g enable-background="new    ">
				
					<path fill="#FFFFFF" stroke="#000000" stroke-width="0.5" stroke-linecap="round" stroke-linejoin="round" stroke-miterlimit="10" d="
					M54.033,20.951c1.115-1.074,2.128-2.375,3.866-4.269"/>
				
					<path fill="#FFFFFF" stroke="#000000" stroke-width="0.5" stroke-linecap="round" stroke-linejoin="round" stroke-miterlimit="10" d="
					M53.747,21.631"/>
				
					<path fill="#FFFFFF" stroke="#000000" stroke-width="0.5" stroke-linecap="round" stroke-linejoin="round" stroke-miterlimit="10" d="
					M57.899,16.682"/>
			</g>
		</g>
		<g enable-background="new    ">
			<g enable-background="new    ">
				
					<path fill="#FFFFFF" stroke="#000000" stroke-width="0.5" stroke-linecap="round" stroke-linejoin="round" stroke-miterlimit="10" d="
					M58.036,16.781"/>
			</g>
		</g>
		<g enable-background="new    ">
			<defs>
				<path id="SVGID_9_" enable-background="new    " d="M60.276,22.015l-0.199,0.874c-2.631-0.505-4.403-0.823-6.243-1.064
					l0.199-0.875C55.873,21.191,57.646,21.51,60.276,22.015z"/>
			</defs>
			<use xlink:href="#SVGID_9_"  overflow="visible" fill="#FFFFFF"/>
			<clipPath id="SVGID_10_">
				<use xlink:href="#SVGID_9_"  overflow="visible"/>
			</clipPath>
			<g clip-path="url(#SVGID_10_)" enable-background="new    ">
				
					<path fill="#FFFFFF" stroke="#000000" stroke-width="0.5" stroke-linecap="round" stroke-linejoin="round" stroke-miterlimit="10" d="
					M60.276,22.015l-0.199,0.874c-2.631-0.505-4.403-0.823-6.243-1.064l0.199-0.875C55.873,21.191,57.646,21.51,60.276,22.015"/>
			</g>
			
				<use xlink:href="#SVGID_9_"  overflow="visible" fill="none" stroke="#000000" stroke-width="0.5" stroke-linecap="round" stroke-linejoin="round" stroke-miterlimit="10"/>
		</g>
		<g>
			
				<polygon fill="#FFFFFF" stroke="#000000" stroke-width="0.5" stroke-linecap="round" stroke-linejoin="round" stroke-miterlimit="10" points="
				68.555,26.462 67.874,26.319 66.931,24.069 67.129,23.194 			"/>
		</g>
		<g enable-background="new    ">
			<defs>
				<path id="SVGID_11_" enable-background="new    " d="M43.986,21.066c1.902,0.371,3.375,0.632,5.257,0.877l-0.199,0.874"/>
			</defs>
			<use xlink:href="#SVGID_11_"  overflow="visible" fill="#FFFFFF"/>
			<clipPath id="SVGID_12_">
				<use xlink:href="#SVGID_11_"  overflow="visible"/>
			</clipPath>
			<g clip-path="url(#SVGID_12_)" enable-background="new    ">
				
					<path fill="#FFFFFF" stroke="#000000" stroke-width="0.5" stroke-linecap="round" stroke-linejoin="round" stroke-miterlimit="10" d="
					M43.986,21.066c1.902,0.371,3.375,0.632,5.257,0.877"/>
				
					<line fill="#FFFFFF" stroke="#000000" stroke-width="0.5" stroke-linecap="round" stroke-linejoin="round" stroke-miterlimit="10" x1="49.243" y1="21.944" x2="49.044" y2="22.818"/>
			</g>
			
				<use xlink:href="#SVGID_11_"  overflow="visible" fill="none" stroke="#000000" stroke-width="0.5" stroke-linecap="round" stroke-linejoin="round" stroke-miterlimit="10"/>
		</g>
		<g>
			
				<line fill="#FFFFFF" stroke="#000000" stroke-width="0.5" stroke-linecap="round" stroke-linejoin="round" stroke-miterlimit="10" x1="52.51" y1="23.088" x2="68.555" y2="26.462"/>
		</g>
		<g>
			
				<line fill="#FFFFFF" stroke="#000000" stroke-width="0.5" stroke-linecap="round" stroke-linejoin="round" stroke-miterlimit="10" x1="35.181" y1="16.206" x2="36.5" y2="19.631"/>
		</g>
		<g>
			
				<path fill="#FFFFFF" stroke="#000000" stroke-width="0.5" stroke-linecap="round" stroke-linejoin="round" stroke-miterlimit="10" d="
				M36.3,20.506"/>
			
				<line fill="#FFFFFF" stroke="#000000" stroke-width="0.5" stroke-linecap="round" stroke-linejoin="round" stroke-miterlimit="10" x1="36.5" y1="19.631" x2="43.986" y2="21.066"/>
		</g>
		<g enable-background="new    ">
			<defs>
				<path id="SVGID_13_" enable-background="new    " d="M49.44,21.986l-0.2,0.875c-1.124,1.015-2.125,2.007-3.483,3.387
					l0.198-0.875C47.314,23.994,48.314,23.001,49.44,21.986z"/>
			</defs>
			<use xlink:href="#SVGID_13_"  overflow="visible" fill="#FFFFFF"/>
			<clipPath id="SVGID_14_">
				<use xlink:href="#SVGID_13_"  overflow="visible"/>
			</clipPath>
			<g clip-path="url(#SVGID_14_)" enable-background="new    ">
				
					<path fill="#FFFFFF" stroke="#000000" stroke-width="0.5" stroke-linecap="round" stroke-linejoin="round" stroke-miterlimit="10" d="
					M49.44,21.986l-0.2,0.875c-1.124,1.015-2.125,2.007-3.483,3.387l0.198-0.875C47.314,23.994,48.314,23.001,49.44,21.986"/>
			</g>
			
				<use xlink:href="#SVGID_13_"  overflow="visible" fill="none" stroke="#000000" stroke-width="0.5" stroke-linecap="round" stroke-linejoin="round" stroke-miterlimit="10"/>
		</g>
		<g>
			
				<polygon fill="#FFFFFF" stroke="#000000" stroke-width="0.5" stroke-linecap="round" stroke-linejoin="round" stroke-miterlimit="10" points="
				45.955,25.373 45.756,26.248 41.409,30.615 41.248,30.101 			"/>
		</g>
		<g>
			
				<line fill="#FFFFFF" stroke="#000000" stroke-width="0.5" stroke-linecap="round" stroke-linejoin="round" stroke-miterlimit="10" x1="42.691" y1="33.403" x2="52.51" y2="23.088"/>
		</g>
		<g>
			
				<path fill="#FFFFFF" stroke="#000000" stroke-width="0.5" stroke-linecap="round" stroke-linejoin="round" stroke-miterlimit="10" d="
				M57.899,16.682"/>
		</g>
		<g>
			
				<line fill="#FFFFFF" stroke="#000000" stroke-width="0.5" stroke-linecap="round" stroke-linejoin="round" stroke-miterlimit="10" x1="41.198" y1="30.157" x2="42.691" y2="33.403"/>
		</g>
		<g>
			
				<path fill="#FFFFFF" stroke="#000000" stroke-width="0.5" stroke-linecap="round" stroke-linejoin="round" stroke-miterlimit="10" d="
				M52.529,23.244"/>
		</g>
	</g>
</g>
</svg>
