<?xml version="1.0" encoding="utf-8"?>
<!-- Generator: Adobe Illustrator 15.1.0, SVG Export Plug-In . SVG Version: 6.00 Build 0)  -->
<!DOCTYPE svg PUBLIC "-//W3C//DTD SVG 1.1//EN" "http://www.w3.org/Graphics/SVG/1.1/DTD/svg11.dtd">
<svg version="1.1" id="Layer_1" xmlns="http://www.w3.org/2000/svg" xmlns:xlink="http://www.w3.org/1999/xlink" x="0px" y="0px"
	 width="100px" height="100px" viewBox="0 0 100 100" enable-background="new 0 0 100 100" xml:space="preserve">
<g>
	
		<path fill="#FFFFFF" stroke="#000000" stroke-width="0.5" stroke-linecap="round" stroke-linejoin="round" stroke-miterlimit="10" d="
		M10.386,45.004l-2.391-0.949c-4.538-1.805-5.011-10.768-1.058-20.02c3.954-9.252,10.837-15.289,15.375-13.485l2.391,0.95"/>
	
		<path fill="#FFFFFF" stroke="#000000" stroke-width="0.5" stroke-linecap="round" stroke-linejoin="round" stroke-miterlimit="10" d="
		M10.121,44.898c-4.685-1.863-5.277-10.873-1.323-20.125c3.954-9.251,10.956-15.242,15.64-13.38
		c4.685,1.863,5.277,10.872,1.323,20.125C21.808,40.771,14.806,46.76,10.121,44.898z"/>
	
		<path fill="#FFFFFF" stroke="#000000" stroke-width="0.5" stroke-linecap="round" stroke-linejoin="round" stroke-miterlimit="10" d="
		M72.605,31.623L24.802,12.616c-4.427-1.76-11.044,3.901-14.781,12.645c-3.736,8.743-3.177,17.257,1.25,19.019l47.803,19.006
		L72.605,31.623z"/>
	
		<path fill="#FFFFFF" stroke="#000000" stroke-width="0.5" stroke-linecap="round" stroke-linejoin="round" stroke-miterlimit="10" d="
		M61.023,65.365l-2.418-0.963c-4.592-1.824-5.07-10.891-1.07-20.25c4-9.36,10.963-15.467,15.553-13.642l2.418,0.961"/>
	
		<path fill="#FFFFFF" stroke="#000000" stroke-width="0.5" stroke-linecap="round" stroke-linejoin="round" stroke-miterlimit="10" d="
		M60.754,65.258c-4.738-1.885-5.338-11-1.338-20.359c4-9.357,11.084-15.417,15.822-13.534s5.338,10.999,1.338,20.358
		S65.492,67.141,60.754,65.258z"/>
	<g>
		
			<path fill="#FFFFFF" stroke="#000000" stroke-width="0.5" stroke-linecap="round" stroke-linejoin="round" stroke-miterlimit="10" d="
			M41.835,56.391c-2.293-3.791-2.038-10.879,1.035-18.068c3.064-7.172,8.041-12.366,12.428-13.517"/>
		
			<path fill="#FFFFFF" stroke="#000000" stroke-width="0.5" stroke-linecap="round" stroke-linejoin="round" stroke-miterlimit="10" d="
			M42.695,56.717c-2.388-3.838-2.205-10.943,0.863-18.123c3.087-7.223,8.194-12.41,12.713-13.465"/>
	</g>
	<g>
		
			<path fill="#FFFFFF" stroke="#000000" stroke-width="0.5" stroke-linecap="round" stroke-linejoin="round" stroke-miterlimit="10" d="
			M22.551,48.723c-2.984-4.064-3.219-11.348-0.146-18.538c3.064-7.171,8.529-12.171,13.605-13.049"/>
		
			<path fill="#FFFFFF" stroke="#000000" stroke-width="0.5" stroke-linecap="round" stroke-linejoin="round" stroke-miterlimit="10" d="
			M23.587,49.119c-3.1-4.121-3.419-11.426-0.352-18.604c3.087-7.225,8.704-12.208,13.942-12.978"/>
	</g>
	
		<path fill="#FFFFFF" stroke="#000000" stroke-width="0.5" stroke-linecap="round" stroke-linejoin="round" stroke-miterlimit="10" d="
		M61.262,64.369c-4.301-1.711-4.725-10.268-0.945-19.111c3.779-8.846,10.33-14.628,14.633-12.918
		c4.303,1.711,4.725,10.268,0.945,19.112C72.115,60.297,65.564,66.078,61.262,64.369z"/>
	
		<path fill="#FFFFFF" stroke="#000000" stroke-width="0.5" stroke-linecap="round" stroke-linejoin="round" stroke-miterlimit="10" d="
		M74.949,32.339c3.879,1.543,3.461,9.644-0.32,18.49c-3.779,8.846-9.488,15.083-13.367,13.54"/>
</g>
<path stroke="#FFFFFF" stroke-width="0.5" stroke-miterlimit="10" d="M89.6,61.956c5.98,4.584,7.25,13.311,2.697,20.188
	c-4.846,7.321-14.449,9.779-21.453,5.492c-6.717-4.108-8.599-12.928-4.471-20.103l-0.055,0.01c6.066-9.164-0.41-15.041-0.41-15.041
	C76.531,53.124,86,58.922,89.6,61.956z"/>
</svg>
