<?xml version="1.0" encoding="utf-8"?>
<!-- Generator: Adobe Illustrator 15.1.0, SVG Export Plug-In . SVG Version: 6.00 Build 0)  -->
<!DOCTYPE svg PUBLIC "-//W3C//DTD SVG 1.1//EN" "http://www.w3.org/Graphics/SVG/1.1/DTD/svg11.dtd">
<svg version="1.1" id="Layer_1" xmlns="http://www.w3.org/2000/svg" xmlns:xlink="http://www.w3.org/1999/xlink" x="0px" y="0px"
	 width="100px" height="100px" viewBox="0 0 100 100" enable-background="new 0 0 100 100" xml:space="preserve">
<g>
	<g enable-background="new    ">
		<g>
			
				<polygon fill="#FFFFFF" stroke="#000000" stroke-width="0.5" stroke-linecap="round" stroke-linejoin="round" stroke-miterlimit="10" points="
				20.25,56.678 18.743,55.86 18.744,52.954 20.251,53.772 			"/>
		</g>
		<g>
			
				<polygon fill="#FFFFFF" stroke="#000000" stroke-width="0.5" stroke-linecap="round" stroke-linejoin="round" stroke-miterlimit="10" points="
				20.251,52.835 18.744,52.018 18.746,48.318 20.252,49.135 			"/>
		</g>
		<g>
			
				<polygon fill="#FFFFFF" stroke="#000000" stroke-width="0.5" stroke-linecap="round" stroke-linejoin="round" stroke-miterlimit="10" points="
				20.252,48.198 18.746,47.383 18.749,43.682 20.254,44.498 			"/>
		</g>
		<g>
			
				<polygon fill="#FFFFFF" stroke="#000000" stroke-width="0.5" stroke-linecap="round" stroke-linejoin="round" stroke-miterlimit="10" points="
				12.815,53.893 11.308,53.074 18.744,52.018 20.251,52.835 			"/>
		</g>
		<g>
			
				<polygon fill="#FFFFFF" stroke="#000000" stroke-width="0.5" stroke-linecap="round" stroke-linejoin="round" stroke-miterlimit="10" points="
				20.254,43.562 18.749,42.746 18.75,39.046 20.256,39.863 			"/>
		</g>
		<g>
			
				<polygon fill="#FFFFFF" stroke="#000000" stroke-width="0.5" stroke-linecap="round" stroke-linejoin="round" stroke-miterlimit="10" points="
				12.816,49.255 11.311,48.438 18.746,47.383 20.252,48.198 			"/>
		</g>
		<g>
			
				<polygon fill="#FFFFFF" stroke="#000000" stroke-width="0.5" stroke-linecap="round" stroke-linejoin="round" stroke-miterlimit="10" points="
				20.256,38.927 18.75,38.109 18.75,34.409 20.258,35.226 			"/>
		</g>
		<g>
			
				<polygon fill="#FFFFFF" stroke="#000000" stroke-width="0.5" stroke-linecap="round" stroke-linejoin="round" stroke-miterlimit="10" points="
				12.819,44.618 11.313,43.802 18.749,42.746 20.254,43.562 			"/>
		</g>
		<g>
			
				<polygon fill="#FFFFFF" stroke="#000000" stroke-width="0.5" stroke-linecap="round" stroke-linejoin="round" stroke-miterlimit="10" points="
				20.258,34.291 18.75,33.474 18.754,29.774 20.259,30.591 			"/>
		</g>
		<g>
			
				<polygon fill="#FFFFFF" stroke="#000000" stroke-width="0.5" stroke-linecap="round" stroke-linejoin="round" stroke-miterlimit="10" points="
				12.82,39.983 11.314,39.167 18.75,38.109 20.256,38.927 			"/>
		</g>
		<g>
			
				<polygon fill="#FFFFFF" stroke="#000000" stroke-width="0.5" stroke-linecap="round" stroke-linejoin="round" stroke-miterlimit="10" points="
				20.259,29.654 18.754,28.837 18.754,25.139 20.26,25.955 			"/>
		</g>
		<g>
			
				<polygon fill="#FFFFFF" stroke="#000000" stroke-width="0.5" stroke-linecap="round" stroke-linejoin="round" stroke-miterlimit="10" points="
				12.822,35.347 11.315,34.53 18.75,33.474 20.258,34.291 			"/>
		</g>
		<g>
			
				<polygon fill="#FFFFFF" stroke="#000000" stroke-width="0.5" stroke-linecap="round" stroke-linejoin="round" stroke-miterlimit="10" points="
				20.261,25.018 18.754,24.202 18.757,20.502 20.263,21.317 			"/>
		</g>
		<g>
			
				<polygon fill="#FFFFFF" stroke="#000000" stroke-width="0.5" stroke-linecap="round" stroke-linejoin="round" stroke-miterlimit="10" points="
				12.824,30.711 11.317,29.894 18.754,28.837 20.259,29.654 			"/>
		</g>
		<g>
			
				<polygon fill="#FFFFFF" stroke="#000000" stroke-width="0.5" stroke-linecap="round" stroke-linejoin="round" stroke-miterlimit="10" points="
				20.264,20.383 18.757,19.565 18.758,15.866 20.264,16.682 			"/>
		</g>
		<g>
			
				<polygon fill="#FFFFFF" stroke="#000000" stroke-width="0.5" stroke-linecap="round" stroke-linejoin="round" stroke-miterlimit="10" points="
				20.264,15.746 18.758,14.929 18.759,12.246 20.266,13.063 			"/>
		</g>
		<g>
			
				<polygon fill="#FFFFFF" stroke="#000000" stroke-width="0.5" stroke-linecap="round" stroke-linejoin="round" stroke-miterlimit="10" points="
				20.266,13.063 18.759,12.246 20.378,12.017 21.885,12.833 			"/>
		</g>
		<g>
			
				<polygon fill="#FFFFFF" stroke="#000000" stroke-width="0.5" stroke-linecap="round" stroke-linejoin="round" stroke-miterlimit="10" points="
				12.826,26.075 11.319,25.258 18.754,24.202 20.261,25.018 			"/>
		</g>
		<g>
			
				<polygon fill="#FFFFFF" stroke="#000000" stroke-width="0.5" stroke-linecap="round" stroke-linejoin="round" stroke-miterlimit="10" points="
				12.828,21.438 11.322,20.622 18.757,19.565 20.264,20.383 			"/>
		</g>
		<g>
			
				<polyline fill="#FFFFFF" stroke="#000000" stroke-width="0.5" stroke-linecap="round" stroke-linejoin="round" stroke-miterlimit="10" points="
				12.829,16.802 11.323,15.986 18.758,14.929 20.264,15.746 			"/>
		</g>
		<g>
			
				<polygon fill="#FFFFFF" stroke="#000000" stroke-width="0.5" stroke-linecap="round" stroke-linejoin="round" stroke-miterlimit="10" points="
				11.211,14.35 9.706,13.532 11.324,13.302 12.83,14.119 			"/>
		</g>
		<g>
			
				<polygon fill="#FFFFFF" stroke="#000000" stroke-width="0.5" stroke-linecap="round" stroke-linejoin="round" stroke-miterlimit="10" points="
				11.195,57.963 9.688,57.146 9.706,13.532 11.211,14.35 			"/>
		</g>
		<g>
			
				<path fill="#FFFFFF" stroke="#000000" stroke-width="0.5" stroke-linecap="round" stroke-linejoin="round" stroke-miterlimit="10" d="
				M20.266,13.063l1.619-0.23l-0.017,43.615l-1.618,0.23l0.001-2.905l-7.437,1.055l0,2.906l-1.619,0.229l0.016-43.613l1.619-0.23
				l-0.001,2.683l7.435-1.056L20.266,13.063z M20.251,52.835l0-3.7l-7.436,1.056l-0.001,3.701L20.251,52.835 M20.264,20.383l0-3.701
				l-7.436,1.057l-0.001,3.699L20.264,20.383 M20.256,38.927l0.002-3.701l-7.437,1.056l-0.002,3.702L20.256,38.927 M20.258,34.291
				l0.001-3.7l-7.436,1.056l-0.002,3.7L20.258,34.291 M20.261,25.018l0.002-3.701l-7.436,1.058l-0.001,3.7L20.261,25.018
				 M20.252,48.198l0.002-3.701l-7.437,1.058l-0.001,3.7L20.252,48.198 M20.259,29.654l0-3.699l-7.434,1.056l-0.002,3.7
				L20.259,29.654 M20.254,43.562l0.002-3.699l-7.437,1.056l-0.001,3.699L20.254,43.562"/>
		</g>
	</g>
</g>
<polygon fill="#FFFFFF" stroke="#000000" stroke-width="0.5" stroke-linecap="round" stroke-linejoin="round" stroke-miterlimit="10" points="
	71.179,74.56 33.532,76.121 31.509,49.207 69.822,46.327 "/>
<path fill="#FFFFFF" stroke="#000000" stroke-width="0.5" stroke-linecap="round" stroke-linejoin="round" stroke-miterlimit="10" d="
	M46.703,42.622"/>
<path fill="#FFFFFF" stroke="#000000" stroke-width="0.5" stroke-linecap="round" stroke-linejoin="round" stroke-miterlimit="10" d="
	M42.453,33.36L1,41.246l0.61,1.772l3.364,1.329L6.982,58.86c-1.268-0.904,14.871,8.107,13.091,8.241
	c1.402-0.106,29.02-3.778,29.02-3.778"/>
<g>
	<g enable-background="new    ">
		<g>
			
				<polyline fill="#FFFFFF" stroke="#000000" stroke-width="0.5" stroke-linecap="round" stroke-linejoin="round" stroke-miterlimit="10" points="
				42.453,33.36 98.161,54.898 98.245,56.5 42.559,34.769 			"/>
		</g>
		<g>
			
				<line fill="#FFFFFF" stroke="#000000" stroke-width="0.5" stroke-linecap="round" stroke-linejoin="round" stroke-miterlimit="10" x1="95.939" y1="57.013" x2="41.742" y2="35.689"/>
			
				<line fill="#FFFFFF" stroke="#000000" stroke-width="0.5" stroke-linecap="round" stroke-linejoin="round" stroke-miterlimit="10" x1="41.948" y1="34.304" x2="93.294" y2="54.547"/>
		</g>
		<g>
			
				<polyline fill="#FFFFFF" stroke="#000000" stroke-width="0.5" stroke-linecap="round" stroke-linejoin="round" stroke-miterlimit="10" points="
				96.302,54.956 91.819,77.556 42.11,56.976 41.69,34.359 			"/>
		</g>
		<g>
			
				<polyline fill="#FFFFFF" stroke="#000000" stroke-width="0.5" stroke-linecap="round" stroke-linejoin="round" stroke-miterlimit="10" points="
				91.819,77.556 55.933,86.977 8.171,63.613 			"/>
			
				<line fill="#FFFFFF" stroke="#000000" stroke-width="0.5" stroke-linecap="round" stroke-linejoin="round" stroke-miterlimit="10" x1="39.474" y1="57.729" x2="42.11" y2="56.976"/>
		</g>
		<g>
			
				<polygon fill="#FFFFFF" stroke="#000000" stroke-width="0.5" stroke-linecap="round" stroke-linejoin="round" stroke-miterlimit="10" points="
				55.933,86.977 8.171,63.613 3.671,42.509 55.3,66.083 			"/>
		</g>
		<g>
			
				<polygon fill="#FFFFFF" stroke="#000000" stroke-width="0.5" stroke-linecap="round" stroke-linejoin="round" stroke-miterlimit="10" points="
				55.63,87.408 7.903,63.986 3.401,42.883 54.993,66.517 			"/>
		</g>
		<g>
			
				<polygon fill="#FFFFFF" stroke="#000000" stroke-width="0.5" stroke-linecap="round" stroke-linejoin="round" stroke-miterlimit="10" points="
				52.847,66.631 1.459,42.949 3.671,42.509 55.3,66.083 			"/>
		</g>
		<g>
			
				<polygon fill="#FFFFFF" stroke="#000000" stroke-width="0.5" stroke-linecap="round" stroke-linejoin="round" stroke-miterlimit="10" points="
				98.161,54.898 98.245,56.5 95.939,57.013 91.819,77.556 55.933,86.977 55.3,66.083 52.847,66.631 52.729,64.984 			"/>
		</g>
		<g>
			
				<polygon fill="#FFFFFF" stroke="#000000" stroke-width="0.5" stroke-linecap="round" stroke-linejoin="round" stroke-miterlimit="10" points="
				52.847,66.631 1.459,42.949 1.326,41.503 52.729,64.984 			"/>
		</g>
		<g>
			
				<polygon fill="#FFFFFF" stroke="#000000" stroke-width="0.5" stroke-linecap="round" stroke-linejoin="round" stroke-miterlimit="10" points="
				52.543,67.063 1.191,43.325 1,41.246 52.372,64.696 			"/>
		</g>
		<g>
			
				<path fill="#FFFFFF" stroke="#000000" stroke-width="0.5" stroke-linecap="round" stroke-linejoin="round" stroke-miterlimit="10" d="
				M98.451,54.479l0.121,2.3l-2.305,0.515l-4.124,20.531L55.63,87.408l-0.637-20.892l-2.45,0.547l-0.171-2.367 M98.451,54.479
				L52.372,64.696 M98.245,56.5"/>
		</g>
	</g>
</g>
<line fill="#FFFFFF" stroke="#000000" stroke-width="0.5" stroke-linecap="round" stroke-linejoin="round" stroke-miterlimit="10" x1="54.993" y1="66.517" x2="96.268" y2="57.294"/>
<polygon fill="none" stroke="#000000" stroke-width="0.5" stroke-linecap="round" stroke-linejoin="round" stroke-miterlimit="10" points="
	41.948,34.304 4.132,41.553 52.633,63.71 93.294,54.547 "/>
<path fill="#FFFFFF" stroke="#000000" stroke-width="0.5" stroke-linecap="round" stroke-linejoin="round" stroke-miterlimit="10" d="
	M10.268,31.946"/>
<g>
	
		<path fill="#FFFFFF" stroke="#000000" stroke-width="0.5" stroke-linecap="round" stroke-linejoin="round" stroke-miterlimit="10" d="
		M9.612,12.386C9.471,12.428,36.6,23.299,36.6,23.299l8.015-2.334l-25.93-10.186l-9.121,1.613l-0.004,1.079
		c-0.142,0.042,26.986,10.913,26.986,10.913l8.015-2.335l0.054-1.084"/>
	
		<line fill="#FFFFFF" stroke="#000000" stroke-width="0.5" stroke-linecap="round" stroke-linejoin="round" stroke-miterlimit="10" x1="36.6" y1="23.299" x2="36.545" y2="24.384"/>
</g>
<path stroke="#FFFFFF" stroke-width="0.5" stroke-miterlimit="10" d="M56.268,12.465c3.996-0.121,7.446,3.039,7.884,7.394
	c0.463,4.635-2.659,8.869-6.978,9.456c-4.141,0.562-7.873-2.432-8.582-6.764l-0.018,0.021c-0.582-5.8-5.216-6.043-5.216-6.043
	C47.935,13.22,53.771,12.425,56.268,12.465z"/>
</svg>
