<?xml version="1.0" encoding="utf-8"?>
<!-- Generator: Adobe Illustrator 15.1.0, SVG Export Plug-In . SVG Version: 6.00 Build 0)  -->
<!DOCTYPE svg PUBLIC "-//W3C//DTD SVG 1.1//EN" "http://www.w3.org/Graphics/SVG/1.1/DTD/svg11.dtd">
<svg version="1.1" id="Layer_1" xmlns="http://www.w3.org/2000/svg" xmlns:xlink="http://www.w3.org/1999/xlink" x="0px" y="0px"
	 width="100px" height="100px" viewBox="0 0 100 100" enable-background="new 0 0 100 100" xml:space="preserve">
<g>
	<g>
		<g enable-background="new    ">
			<g>
				
					<polygon fill="#FFFFFF" stroke="#000000" stroke-width="0.5" stroke-linecap="round" stroke-linejoin="round" stroke-miterlimit="10" points="
					72.277,65.087 52.922,55.386 52.953,49.319 72.412,58.471 				"/>
			</g>
			<g>
				
					<polygon fill="#FFFFFF" stroke="#000000" stroke-width="0.5" stroke-linecap="round" stroke-linejoin="round" stroke-miterlimit="10" points="
					66.816,65.904 47.819,56.062 52.922,55.386 72.277,65.087 				"/>
			</g>
			<g>
				
					<polygon fill="#FFFFFF" stroke="#000000" stroke-width="0.5" stroke-linecap="round" stroke-linejoin="round" stroke-miterlimit="10" points="
					69.85,53.633 50.482,44.854 57.107,38.749 77.029,46.873 				"/>
			</g>
			<g>
				
					<polygon fill="#FFFFFF" stroke="#000000" stroke-width="0.5" stroke-linecap="round" stroke-linejoin="round" stroke-miterlimit="10" points="
					65.209,66.146 46.319,56.261 46.316,50.144 65.307,59.469 				"/>
			</g>
			<g>
				
					<polygon fill="#FFFFFF" stroke="#000000" stroke-width="0.5" stroke-linecap="round" stroke-linejoin="round" stroke-miterlimit="10" points="
					59.637,66.979 41.122,56.949 46.319,56.261 65.209,66.146 				"/>
			</g>
			<g>
				
					<polygon fill="#FFFFFF" stroke="#000000" stroke-width="0.5" stroke-linecap="round" stroke-linejoin="round" stroke-miterlimit="10" points="
					62.664,54.589 43.778,45.644 50.496,39.479 69.957,47.758 				"/>
			</g>
			<g>
				
					<polygon fill="#FFFFFF" stroke="#000000" stroke-width="0.5" stroke-linecap="round" stroke-linejoin="round" stroke-miterlimit="10" points="
					57.998,67.225 39.594,57.151 39.559,50.982 58.059,60.487 				"/>
			</g>
			<g>
				
					<polygon fill="#FFFFFF" stroke="#000000" stroke-width="0.5" stroke-linecap="round" stroke-linejoin="round" stroke-miterlimit="10" points="
					52.311,68.076 34.3,57.853 39.594,57.151 57.998,67.225 				"/>
			</g>
			<g>
				
					<polygon fill="#FFFFFF" stroke="#000000" stroke-width="0.5" stroke-linecap="round" stroke-linejoin="round" stroke-miterlimit="10" points="
					55.334,55.566 36.951,46.447 43.764,40.222 62.738,48.659 				"/>
			</g>
			<g>
				
					<polygon fill="#FFFFFF" stroke="#000000" stroke-width="0.5" stroke-linecap="round" stroke-linejoin="round" stroke-miterlimit="10" points="
					50.639,68.327 32.744,58.06 32.674,51.838 50.66,61.526 				"/>
			</g>
			<g>
				
					<polygon fill="#FFFFFF" stroke="#000000" stroke-width="0.5" stroke-linecap="round" stroke-linejoin="round" stroke-miterlimit="10" points="
					44.836,69.196 27.353,58.773 32.744,58.06 50.639,68.327 				"/>
			</g>
			<g>
				
					<polygon fill="#FFFFFF" stroke="#000000" stroke-width="0.5" stroke-linecap="round" stroke-linejoin="round" stroke-miterlimit="10" points="
					47.853,56.562 29.997,47.265 36.908,40.978 55.375,49.58 				"/>
			</g>
			<g>
				
					<polygon fill="#FFFFFF" stroke="#000000" stroke-width="0.5" stroke-linecap="round" stroke-linejoin="round" stroke-miterlimit="10" points="
					40.375,87.644 23.434,75.6 22.911,48.099 40.215,57.579 				"/>
			</g>
			<g>
				
					<polygon fill="#FFFFFF" stroke="#000000" stroke-width="0.5" stroke-linecap="round" stroke-linejoin="round" stroke-miterlimit="10" points="
					40.215,57.579 22.911,48.099 29.923,41.748 47.858,50.52 				"/>
			</g>
			<g>
				
					<path fill="#FFFFFF" stroke="#000000" stroke-width="0.5" stroke-linecap="round" stroke-linejoin="round" stroke-miterlimit="10" d="
					M69.85,53.633l7.18-6.76L76.207,81.42l-6.887,1.195l-7.023,1.221l-7.16,1.244l-7.306,1.269l-7.455,1.295l-0.16-30.064
					l7.643-7.06l-0.005,6.042l7.522-6.981l-0.041,5.986l7.404-6.907l-0.074,5.93l7.293-6.831L69.85,53.633z M57.998,67.225
					l0.061-6.737L52.34,61.29l-0.029,6.786L57.998,67.225 M50.639,68.327l0.021-6.801l-5.834,0.818l0.011,6.852L50.639,68.327
					 M65.209,66.146l0.098-6.677l-5.602,0.787l-0.068,6.724L65.209,66.146 M72.277,65.087l0.135-6.616l-5.49,0.771l-0.105,6.663
					L72.277,65.087"/>
			</g>
		</g>
	</g>
	
		<line fill="#FFFFFF" stroke="#000000" stroke-width="0.5" stroke-linecap="round" stroke-linejoin="round" stroke-miterlimit="10" x1="24.022" y1="47.098" x2="41.326" y2="56.578"/>
	
		<line fill="#FFFFFF" stroke="#000000" stroke-width="0.5" stroke-linecap="round" stroke-linejoin="round" stroke-miterlimit="10" x1="25.647" y1="45.403" x2="42.953" y2="54.883"/>
	<g>
		
			<polyline fill="#FFFFFF" stroke="#000000" stroke-width="0.5" stroke-linecap="round" stroke-linejoin="round" stroke-miterlimit="10" points="
			61.771,44.498 60.055,8.048 55.941,8.048 54.291,42.679 		"/>
		
			<ellipse fill="#FFFFFF" stroke="#000000" stroke-width="0.5" stroke-linecap="round" stroke-linejoin="round" stroke-miterlimit="10" cx="57.998" cy="8.048" rx="2.057" ry="0.642"/>
	</g>
	<g>
		
			<polyline fill="#FFFFFF" stroke="#000000" stroke-width="0.5" stroke-linecap="round" stroke-linejoin="round" stroke-miterlimit="10" points="
			67.73,46.98 65.812,9.889 61.699,9.889 59.982,47.434 		"/>
		
			<ellipse fill="#FFFFFF" stroke="#000000" stroke-width="0.5" stroke-linecap="round" stroke-linejoin="round" stroke-miterlimit="10" cx="63.756" cy="9.889" rx="2.057" ry="0.653"/>
	</g>
	
		<line fill="#FFFFFF" stroke="#000000" stroke-width="0.5" stroke-linecap="round" stroke-linejoin="round" stroke-miterlimit="10" x1="56.867" y1="8.69" x2="55.375" y2="44.845"/>
</g>
</svg>
