<?xml version="1.0" encoding="utf-8"?>
<!-- Generator: Adobe Illustrator 15.1.0, SVG Export Plug-In . SVG Version: 6.00 Build 0)  -->
<!DOCTYPE svg PUBLIC "-//W3C//DTD SVG 1.1//EN" "http://www.w3.org/Graphics/SVG/1.1/DTD/svg11.dtd">
<svg version="1.1" id="Layer_1" xmlns="http://www.w3.org/2000/svg" xmlns:xlink="http://www.w3.org/1999/xlink" x="0px" y="0px"
	 width="100px" height="100px" viewBox="0 0 100 100" enable-background="new 0 0 100 100" xml:space="preserve">
<g>
	<g>
		<g enable-background="new    ">
			<g enable-background="new    ">
				<defs>
					<path id="SVGID_1_" enable-background="new    " d="M81.075,45.48c5.896,2.328,11.793,4.654,17.689,6.98
						c-0.014-0.004-0.028-0.01-0.041-0.014c-0.015-0.002-0.03-0.006-0.045-0.006c-0.015-0.004-0.03-0.004-0.046-0.004
						c-0.018,0.002-0.032,0.004-0.049,0.006l-17.679-6.982c0.015-0.003,0.029-0.004,0.044-0.004s0.028,0.001,0.044,0.003
						c0.014,0.001,0.028,0.004,0.042,0.008C81.047,45.472,81.062,45.477,81.075,45.48z"/>
				</defs>
				<use xlink:href="#SVGID_1_"  overflow="visible" fill="#FFFFFF"/>
				<clipPath id="SVGID_2_">
					<use xlink:href="#SVGID_1_"  overflow="visible"/>
				</clipPath>
				<g clip-path="url(#SVGID_2_)" enable-background="new    ">
					
						<path fill="#FFFFFF" stroke="#000000" stroke-width="0.5" stroke-linecap="round" stroke-linejoin="round" stroke-miterlimit="10" d="
						M98.584,52.443l-17.679-6.982c0.012-0.001,0.023-0.004,0.036-0.004c0.014,0,0.024,0,0.036,0.001
						c0.013,0.002,0.026,0.003,0.036,0.005c0.011,0.002,0.022,0.004,0.033,0.008l17.689,6.979c-0.011-0.004-0.021-0.006-0.034-0.008
						c-0.014-0.002-0.025-0.004-0.038-0.004c-0.015-0.002-0.025-0.002-0.04,0C98.61,52.439,98.599,52.441,98.584,52.443"/>
					
						<polyline fill="#FFFFFF" stroke="#000000" stroke-width="0.5" stroke-linecap="round" stroke-linejoin="round" stroke-miterlimit="10" points="
						98.736,52.451 81.047,45.472 81.054,45.473 81.062,45.477 81.068,45.478 81.075,45.48 98.765,52.461 98.758,52.459 
						98.751,52.457 98.744,52.453 98.736,52.451 					"/>
				</g>
				
					<use xlink:href="#SVGID_1_"  overflow="visible" fill="none" stroke="#000000" stroke-width="0.5" stroke-linecap="round" stroke-linejoin="round" stroke-miterlimit="10"/>
			</g>
			<g>
				
					<polygon fill="#FFFFFF" stroke="#000000" stroke-width="0.5" stroke-linecap="round" stroke-linejoin="round" stroke-miterlimit="10" points="
					89.441,53.877 72.391,46.607 80.905,45.461 98.584,52.443 				"/>
			</g>
			<g>
				
					<polygon fill="#FFFFFF" stroke="#000000" stroke-width="0.5" stroke-linecap="round" stroke-linejoin="round" stroke-miterlimit="10" points="
					88.5,54.025 71.515,46.725 71.572,44.632 88.612,51.703 				"/>
			</g>
			<g>
				
					<polygon fill="#FFFFFF" stroke="#000000" stroke-width="0.5" stroke-linecap="round" stroke-linejoin="round" stroke-miterlimit="10" points="
					85.011,54.57 68.277,47.16 71.515,46.725 88.5,54.025 				"/>
			</g>
			<g>
				
					<polygon fill="#FFFFFF" stroke="#000000" stroke-width="0.5" stroke-linecap="round" stroke-linejoin="round" stroke-miterlimit="10" points="
					84.051,54.723 67.389,47.279 67.434,45.17 84.15,52.379 				"/>
			</g>
			<g>
				
					<polygon fill="#FFFFFF" stroke="#000000" stroke-width="0.5" stroke-linecap="round" stroke-linejoin="round" stroke-miterlimit="10" points="
					82.759,54.926 66.189,47.441 67.389,47.279 84.051,54.723 				"/>
			</g>
			<g>
				
					<polygon fill="#FFFFFF" stroke="#000000" stroke-width="0.5" stroke-linecap="round" stroke-linejoin="round" stroke-miterlimit="10" points="
					86.55,44.993 69.512,38.557 72.623,38.196 89.904,44.54 				"/>
			</g>
			<g>
				
					<polygon fill="#FFFFFF" stroke="#000000" stroke-width="0.5" stroke-linecap="round" stroke-linejoin="round" stroke-miterlimit="10" points="
					80.485,55.281 64.087,47.724 66.189,47.441 82.759,54.926 				"/>
			</g>
			<g>
				
					<polygon fill="#FFFFFF" stroke="#000000" stroke-width="0.5" stroke-linecap="round" stroke-linejoin="round" stroke-miterlimit="10" points="
					79.507,55.434 63.182,47.846 63.215,45.716 79.594,53.068 				"/>
			</g>
			<g>
				
					<polygon fill="#FFFFFF" stroke="#000000" stroke-width="0.5" stroke-linecap="round" stroke-linejoin="round" stroke-miterlimit="10" points="
					75.868,56.004 59.819,48.298 63.182,47.846 79.507,55.434 				"/>
			</g>
			<g>
				
					<polygon fill="#FFFFFF" stroke="#000000" stroke-width="0.5" stroke-linecap="round" stroke-linejoin="round" stroke-miterlimit="10" points="
					83.39,40.752 66.489,34.701 69.612,34.37 86.762,40.333 				"/>
			</g>
			<g>
				
					<polygon fill="#FFFFFF" stroke="#000000" stroke-width="0.5" stroke-linecap="round" stroke-linejoin="round" stroke-miterlimit="10" points="
					82.001,40.925 65.206,34.838 66.489,34.701 83.39,40.752 				"/>
			</g>
			<g>
				
					<polygon fill="#FFFFFF" stroke="#000000" stroke-width="0.5" stroke-linecap="round" stroke-linejoin="round" stroke-miterlimit="10" points="
					74.869,56.162 58.896,48.422 58.93,45.437 74.971,52.84 				"/>
			</g>
			<g>
				
					<polygon fill="#FFFFFF" stroke="#000000" stroke-width="0.5" stroke-linecap="round" stroke-linejoin="round" stroke-miterlimit="10" points="
					71.004,56.768 55.337,48.9 58.896,48.422 74.869,56.162 				"/>
			</g>
			<g>
				
					<polygon fill="#FFFFFF" stroke="#000000" stroke-width="0.5" stroke-linecap="round" stroke-linejoin="round" stroke-miterlimit="10" points="
					78.806,41.322 62.255,35.153 65.206,34.838 82.001,40.925 				"/>
			</g>
			<g>
				
					<polygon fill="#FFFFFF" stroke="#000000" stroke-width="0.5" stroke-linecap="round" stroke-linejoin="round" stroke-miterlimit="10" points="
					78.637,46.063 62.191,39.404 62.255,35.153 78.806,41.322 				"/>
			</g>
			<g enable-background="new    ">
				<defs>
					<path id="SVGID_3_" enable-background="new    " d="M68.136,60.1l-15.388-8.256c0.034-0.041,0.105-0.129,0.203-0.246
						c0.096-0.115,0.217-0.264,0.353-0.432c0.136-0.164,0.285-0.346,0.438-0.531s0.308-0.375,0.454-0.553l15.548,8.023
						c-0.163,0.203-0.336,0.418-0.505,0.625c-0.17,0.211-0.337,0.416-0.485,0.602c-0.152,0.188-0.286,0.355-0.393,0.488
						C68.252,59.953,68.174,60.051,68.136,60.1z"/>
				</defs>
				<use xlink:href="#SVGID_3_"  overflow="visible" fill="#FFFFFF"/>
				<clipPath id="SVGID_4_">
					<use xlink:href="#SVGID_3_"  overflow="visible"/>
				</clipPath>
				<g clip-path="url(#SVGID_4_)" enable-background="new    ">
					
						<path fill="#FFFFFF" stroke="#000000" stroke-width="0.5" stroke-linecap="round" stroke-linejoin="round" stroke-miterlimit="10" d="
						M68.136,60.1l-15.388-8.256c0.034-0.041,0.105-0.129,0.203-0.246c0.096-0.115,0.217-0.264,0.353-0.432
						c0.136-0.164,0.285-0.346,0.438-0.531s0.308-0.375,0.454-0.553l15.548,8.023c-0.163,0.203-0.336,0.418-0.505,0.625
						c-0.17,0.211-0.337,0.416-0.485,0.602c-0.152,0.188-0.286,0.355-0.393,0.488C68.252,59.953,68.174,60.051,68.136,60.1"/>
				</g>
				
					<use xlink:href="#SVGID_3_"  overflow="visible" fill="none" stroke="#000000" stroke-width="0.5" stroke-linecap="round" stroke-linejoin="round" stroke-miterlimit="10"/>
			</g>
			<g>
				
					<polygon fill="#FFFFFF" stroke="#000000" stroke-width="0.5" stroke-linecap="round" stroke-linejoin="round" stroke-miterlimit="10" points="
					75.167,46.533 58.991,39.774 62.191,39.404 78.637,46.063 				"/>
			</g>
			<g>
				
					<polygon fill="#FFFFFF" stroke="#000000" stroke-width="0.5" stroke-linecap="round" stroke-linejoin="round" stroke-miterlimit="10" points="
					74.971,52.84 58.93,45.437 58.991,39.774 75.167,46.533 				"/>
			</g>
			<g>
				
					<polygon fill="#FFFFFF" stroke="#000000" stroke-width="0.5" stroke-linecap="round" stroke-linejoin="round" stroke-miterlimit="10" points="
					64.7,60.66 49.592,52.287 52.748,51.844 68.136,60.1 				"/>
			</g>
			<g>
				
					<polygon fill="#FFFFFF" stroke="#000000" stroke-width="0.5" stroke-linecap="round" stroke-linejoin="round" stroke-miterlimit="10" points="
					63.65,60.83 48.628,52.422 48.626,50.844 63.681,59.07 				"/>
			</g>
			<g>
				
					<polygon fill="#FFFFFF" stroke="#000000" stroke-width="0.5" stroke-linecap="round" stroke-linejoin="round" stroke-miterlimit="10" points="
					60.479,61.348 45.721,52.83 48.628,52.422 63.65,60.83 				"/>
			</g>
			<g>
				
					<polygon fill="#FFFFFF" stroke="#000000" stroke-width="0.5" stroke-linecap="round" stroke-linejoin="round" stroke-miterlimit="10" points="
					59.411,61.521 44.742,52.967 44.731,51.375 59.433,59.748 				"/>
			</g>
			<g>
				
					<polygon fill="#FFFFFF" stroke="#000000" stroke-width="0.5" stroke-linecap="round" stroke-linejoin="round" stroke-miterlimit="10" points="
					56.178,62.051 41.784,53.381 44.742,52.967 59.411,61.521 				"/>
			</g>
			<g>
				
					<polygon fill="#FFFFFF" stroke="#000000" stroke-width="0.5" stroke-linecap="round" stroke-linejoin="round" stroke-miterlimit="10" points="
					55.09,62.229 40.79,53.52 40.771,51.916 55.101,60.438 				"/>
			</g>
			<g>
				
					<polygon fill="#FFFFFF" stroke="#000000" stroke-width="0.5" stroke-linecap="round" stroke-linejoin="round" stroke-miterlimit="10" points="
					51.794,62.766 37.781,53.943 40.79,53.52 55.09,62.229 				"/>
			</g>
			<g>
				
					<polygon fill="#FFFFFF" stroke="#000000" stroke-width="0.5" stroke-linecap="round" stroke-linejoin="round" stroke-miterlimit="10" points="
					50.689,62.945 36.77,54.084 36.743,52.467 50.689,61.143 				"/>
			</g>
			<g>
				
					<polygon fill="#FFFFFF" stroke="#000000" stroke-width="0.5" stroke-linecap="round" stroke-linejoin="round" stroke-miterlimit="10" points="
					47.33,63.496 33.71,54.512 36.77,54.084 50.689,62.945 				"/>
			</g>
			<g>
				
					<polygon fill="#FFFFFF" stroke="#000000" stroke-width="0.5" stroke-linecap="round" stroke-linejoin="round" stroke-miterlimit="10" points="
					46.104,63.693 32.596,54.668 32.559,53.039 46.095,61.875 				"/>
			</g>
			<g>
				
					<polygon fill="#FFFFFF" stroke="#000000" stroke-width="0.5" stroke-linecap="round" stroke-linejoin="round" stroke-miterlimit="10" points="
					39.693,64.74 26.772,55.482 32.596,54.668 46.104,63.693 				"/>
			</g>
			<g>
				
					<polygon fill="#FFFFFF" stroke="#000000" stroke-width="0.5" stroke-linecap="round" stroke-linejoin="round" stroke-miterlimit="10" points="
					39.134,61.766 26.221,52.816 55.337,48.9 71.004,56.768 				"/>
			</g>
			<g>
				
					<polygon fill="#FFFFFF" stroke="#000000" stroke-width="0.5" stroke-linecap="round" stroke-linejoin="round" stroke-miterlimit="10" points="
					35.354,62.357 22.799,53.277 26.221,52.816 39.134,61.766 				"/>
			</g>
			<g enable-background="new    ">
				<defs>
					<path id="SVGID_5_" enable-background="new    " d="M32.881,61.711c-4.111-3.02-8.222-6.037-12.333-9.055
						c0.218,0.16,0.46,0.279,0.703,0.369c0.241,0.088,0.483,0.145,0.702,0.184c0.218,0.037,0.413,0.057,0.562,0.062
						c0.148,0.008,0.25,0.006,0.284,0.006l12.556,9.08c-0.035,0.002-0.149,0.006-0.313,0s-0.378-0.021-0.619-0.059
						c-0.24-0.037-0.507-0.096-0.772-0.189C33.385,62.014,33.12,61.887,32.881,61.711z"/>
				</defs>
				<use xlink:href="#SVGID_5_"  overflow="visible" fill="#FFFFFF"/>
				<clipPath id="SVGID_6_">
					<use xlink:href="#SVGID_5_"  overflow="visible"/>
				</clipPath>
				<g clip-path="url(#SVGID_6_)" enable-background="new    ">
					
						<path fill="#FFFFFF" stroke="#000000" stroke-width="0.5" stroke-linecap="round" stroke-linejoin="round" stroke-miterlimit="10" d="
						M32.881,61.711l-12.333-9.055c0.009,0.006,0.019,0.012,0.028,0.021c0.01,0.006,0.019,0.014,0.029,0.018
						c0.01,0.008,0.019,0.016,0.03,0.02c0.009,0.008,0.019,0.014,0.028,0.021l12.344,9.062c-0.011-0.008-0.022-0.016-0.033-0.023
						c-0.01-0.006-0.02-0.014-0.031-0.02c-0.011-0.008-0.021-0.016-0.032-0.023C32.902,61.725,32.891,61.719,32.881,61.711"/>
					
						<path fill="#FFFFFF" stroke="#000000" stroke-width="0.5" stroke-linecap="round" stroke-linejoin="round" stroke-miterlimit="10" d="
						M33.008,61.799l-12.344-9.062c0.03,0.018,0.061,0.037,0.092,0.055c0.031,0.02,0.062,0.037,0.094,0.055
						c0.031,0.016,0.063,0.033,0.095,0.049s0.064,0.029,0.096,0.045l12.38,9.078c-0.036-0.016-0.071-0.031-0.105-0.049
						c-0.036-0.016-0.07-0.033-0.104-0.053c-0.035-0.02-0.069-0.037-0.103-0.057C33.074,61.84,33.041,61.818,33.008,61.799"/>
					
						<path fill="#FFFFFF" stroke="#000000" stroke-width="0.5" stroke-linecap="round" stroke-linejoin="round" stroke-miterlimit="10" d="
						M33.42,62.018l-12.38-9.078c0.055,0.023,0.108,0.047,0.163,0.066c0.053,0.021,0.108,0.041,0.163,0.059s0.108,0.033,0.162,0.049
						c0.053,0.014,0.106,0.027,0.159,0.041l12.442,9.09c-0.057-0.012-0.116-0.027-0.174-0.041c-0.059-0.018-0.119-0.035-0.178-0.053
						s-0.119-0.039-0.179-0.061S33.479,62.043,33.42,62.018"/>
					
						<path fill="#FFFFFF" stroke="#000000" stroke-width="0.5" stroke-linecap="round" stroke-linejoin="round" stroke-miterlimit="10" d="
						M34.13,62.244l-12.442-9.09c0.139,0.033,0.273,0.059,0.397,0.074c0.125,0.02,0.239,0.029,0.337,0.037
						c0.1,0.008,0.184,0.012,0.249,0.012c0.063,0.002,0.108,0,0.128,0l12.556,9.08c-0.021,0.002-0.071,0.004-0.141,0.004
						c-0.071,0-0.164-0.002-0.273-0.008c-0.11-0.006-0.235-0.018-0.372-0.033C34.431,62.303,34.284,62.279,34.13,62.244"/>
				</g>
				
					<use xlink:href="#SVGID_5_"  overflow="visible" fill="none" stroke="#000000" stroke-width="0.5" stroke-linecap="round" stroke-linejoin="round" stroke-miterlimit="10"/>
			</g>
			<g enable-background="new    ">
				<defs>
					<path id="SVGID_7_" enable-background="new    " d="M19.272,74.449c-3.619-3.568-7.238-7.139-10.857-10.709
						c-0.263-0.258-0.475-0.531-0.647-0.809s-0.304-0.555-0.404-0.826c-0.1-0.271-0.168-0.535-0.214-0.779
						c-0.046-0.244-0.069-0.469-0.08-0.664c-0.006-0.102-0.008-0.195-0.008-0.277c0-0.084,0.002-0.156,0.005-0.221
						c0.003-0.061,0.007-0.111,0.011-0.146c0.003-0.039,0.008-0.061,0.009-0.07l10.763,10.271c-0.002,0.01-0.006,0.039-0.011,0.078
						c-0.005,0.043-0.01,0.1-0.015,0.17c-0.003,0.068-0.007,0.152-0.009,0.244c-0.002,0.096,0,0.199,0.004,0.314
						c0.009,0.219,0.032,0.471,0.08,0.744s0.12,0.568,0.227,0.869c0.108,0.303,0.25,0.613,0.437,0.92S18.983,74.164,19.272,74.449z"
						/>
				</defs>
				<use xlink:href="#SVGID_7_"  overflow="visible" fill="#FFFFFF"/>
				<clipPath id="SVGID_8_">
					<use xlink:href="#SVGID_7_"  overflow="visible"/>
				</clipPath>
				<g clip-path="url(#SVGID_8_)" enable-background="new    ">
					
						<path fill="#FFFFFF" stroke="#000000" stroke-width="0.5" stroke-linecap="round" stroke-linejoin="round" stroke-miterlimit="10" d="
						M19.272,74.449L8.415,63.74c-0.263-0.258-0.475-0.531-0.647-0.809s-0.304-0.555-0.404-0.826
						c-0.1-0.271-0.168-0.535-0.214-0.779c-0.046-0.244-0.069-0.469-0.08-0.664c-0.006-0.102-0.008-0.195-0.008-0.277
						c0-0.084,0.002-0.156,0.005-0.221c0.003-0.061,0.007-0.111,0.011-0.146c0.003-0.039,0.008-0.061,0.009-0.07l10.763,10.271
						c-0.002,0.01-0.006,0.039-0.011,0.078c-0.005,0.043-0.01,0.1-0.015,0.17c-0.003,0.068-0.007,0.152-0.009,0.244
						c-0.002,0.096,0,0.199,0.004,0.314c0.009,0.219,0.032,0.471,0.08,0.744s0.12,0.568,0.227,0.869
						c0.108,0.303,0.25,0.613,0.437,0.92S18.983,74.164,19.272,74.449"/>
				</g>
				
					<use xlink:href="#SVGID_7_"  overflow="visible" fill="none" stroke="#000000" stroke-width="0.5" stroke-linecap="round" stroke-linejoin="round" stroke-miterlimit="10"/>
			</g>
			<g enable-background="new    ">
				<defs>
					<path id="SVGID_9_" enable-background="new    " d="M17.849,70.219L7.086,59.947c0.003-0.021,0.008-0.043,0.013-0.061
						c0.005-0.021,0.011-0.043,0.018-0.061c0.007-0.021,0.016-0.041,0.024-0.059c0.01-0.02,0.02-0.037,0.031-0.057
						c0.016-0.025,0.105-0.17,0.242-0.391c0.136-0.219,0.319-0.516,0.525-0.848c0.206-0.332,0.433-0.699,0.656-1.061
						c0.224-0.361,0.442-0.715,0.633-1.021l11.053,9.777c-0.216,0.35-0.465,0.754-0.718,1.164c-0.253,0.412-0.511,0.83-0.745,1.207
						c-0.233,0.379-0.441,0.719-0.596,0.969c-0.155,0.252-0.256,0.416-0.274,0.445c-0.013,0.021-0.025,0.043-0.035,0.064
						c-0.011,0.02-0.02,0.043-0.028,0.064c-0.009,0.021-0.016,0.045-0.021,0.068C17.857,70.174,17.853,70.197,17.849,70.219z"/>
				</defs>
				<use xlink:href="#SVGID_9_"  overflow="visible" fill="#FFFFFF"/>
				<clipPath id="SVGID_10_">
					<use xlink:href="#SVGID_9_"  overflow="visible"/>
				</clipPath>
				<g clip-path="url(#SVGID_10_)" enable-background="new    ">
					
						<path fill="#FFFFFF" stroke="#000000" stroke-width="0.5" stroke-linecap="round" stroke-linejoin="round" stroke-miterlimit="10" d="
						M17.849,70.219L7.086,59.947c0.002-0.01,0.004-0.02,0.005-0.029c0.003-0.01,0.004-0.02,0.006-0.029s0.005-0.02,0.008-0.029
						c0.003-0.008,0.006-0.018,0.009-0.027l10.768,10.26c-0.004,0.01-0.007,0.02-0.011,0.031c-0.003,0.01-0.007,0.021-0.009,0.031
						c-0.002,0.012-0.006,0.021-0.008,0.033S17.851,70.209,17.849,70.219"/>
					
						<path fill="#FFFFFF" stroke="#000000" stroke-width="0.5" stroke-linecap="round" stroke-linejoin="round" stroke-miterlimit="10" d="
						M7.152,59.746c0.002-0.002,0.003-0.006,0.005-0.008c0.001-0.002,0.002-0.006,0.004-0.008c0.001-0.004,0.004-0.008,0.005-0.01
						c0.002-0.004,0.004-0.006,0.005-0.01c0.016-0.025,0.105-0.17,0.242-0.391c0.136-0.219,0.319-0.516,0.525-0.848
						c0.206-0.332,0.433-0.699,0.656-1.061c0.224-0.361,0.442-0.715,0.633-1.021l11.053,9.777c-0.216,0.35-0.465,0.754-0.718,1.164
						c-0.253,0.412-0.511,0.83-0.745,1.207c-0.233,0.379-0.441,0.719-0.596,0.969c-0.155,0.252-0.256,0.416-0.274,0.445
						c-0.001,0.004-0.004,0.006-0.006,0.01s-0.004,0.008-0.006,0.012c-0.002,0.002-0.004,0.006-0.006,0.008
						c-0.001,0.004-0.003,0.008-0.005,0.01"/>
					
						<path fill="#FFFFFF" stroke="#000000" stroke-width="0.5" stroke-linecap="round" stroke-linejoin="round" stroke-miterlimit="10" d="
						M17.925,69.992"/>
				</g>
				
					<use xlink:href="#SVGID_9_"  overflow="visible" fill="none" stroke="#000000" stroke-width="0.5" stroke-linecap="round" stroke-linejoin="round" stroke-miterlimit="10"/>
			</g>
			<g>
				
					<path fill="#FFFFFF" stroke="#000000" stroke-width="0.5" stroke-linecap="round" stroke-linejoin="round" stroke-miterlimit="10" d="
					M98.584,52.443c0.062-0.01,0.12-0.004,0.172,0.014c0.053,0.02,0.098,0.053,0.136,0.096c0.038,0.041,0.067,0.094,0.085,0.156
					c0.019,0.059,0.027,0.129,0.022,0.203c-0.05,0.84-0.147,1.609-0.275,2.314c-0.131,0.705-0.293,1.348-0.478,1.932
					c-0.187,0.582-0.395,1.107-0.617,1.58s-0.456,0.891-0.693,1.264l-0.909,1.209c-0.196,0.221-0.384,0.408-0.556,0.568
					s-0.33,0.289-0.464,0.395c-0.136,0.105-0.247,0.18-0.329,0.234c-0.083,0.055-0.138,0.084-0.152,0.092L21.369,75.627
					c-0.029,0.006-0.058,0.01-0.086,0.012c-0.029,0-0.057,0-0.084-0.004c-0.029-0.002-0.056-0.008-0.083-0.014
					c-0.026-0.006-0.053-0.016-0.078-0.025c-0.668-0.279-1.201-0.627-1.624-1.012c-0.424-0.385-0.74-0.809-0.971-1.236
					c-0.233-0.426-0.382-0.855-0.477-1.252c-0.095-0.4-0.134-0.768-0.147-1.07c-0.005-0.115-0.006-0.219-0.004-0.314
					c0.001-0.092,0.005-0.176,0.009-0.244c0.004-0.07,0.01-0.127,0.015-0.17c0.004-0.039,0.008-0.068,0.011-0.078
					c0.004-0.021,0.008-0.045,0.015-0.068c0.005-0.023,0.012-0.047,0.021-0.068c0.008-0.021,0.018-0.045,0.028-0.064
					c0.01-0.021,0.022-0.043,0.035-0.064c0.019-0.029,0.119-0.193,0.274-0.445c0.155-0.25,0.363-0.59,0.596-0.969
					c0.233-0.377,0.491-0.795,0.745-1.207c0.253-0.41,0.502-0.814,0.718-1.164l-8.958-8.391l20.572-2.889l0.126,5.451
					c0.102,0.531,0.35,0.924,0.666,1.213c0.317,0.287,0.702,0.475,1.08,0.596c0.378,0.119,0.75,0.172,1.039,0.195
					c0.29,0.023,0.497,0.016,0.548,0.014l3.779-0.592l31.87-4.998l3.865-0.605l0.102-3.322l0.196-6.307l3.47-0.469l0.169-4.742
					l3.195-0.397l1.389-0.173l3.372-0.419l-0.212,4.66l3.354-0.454l-0.293,5.912l-0.17,3.426L98.584,52.443z M46.104,63.693
					l-0.009-1.818l-6.586,1.047c-0.003,0.189-0.004,0.389-0.002,0.584c0.003,0.193,0.01,0.383,0.023,0.553
					c0.013,0.17,0.031,0.322,0.058,0.441s0.061,0.203,0.104,0.24L46.104,63.693 M84.051,54.723l0.1-2.344l-3.574,0.543l-0.091,2.359
					l2.273-0.355L84.051,54.723 M88.5,54.025l0.112-2.322l-3.499,0.531l-0.103,2.336L88.5,54.025 M79.507,55.434l0.087-2.365
					l-3.648,0.553l-0.077,2.383L79.507,55.434 M68.136,60.1c0.038-0.049,0.116-0.146,0.225-0.279
					c0.106-0.133,0.24-0.301,0.393-0.488c0.148-0.186,0.315-0.391,0.485-0.602c0.169-0.207,0.342-0.422,0.505-0.625l-5.011,0.799
					L64.7,60.66L68.136,60.1 M59.411,61.521l0.021-1.773l-3.241,0.516l-0.014,1.787L59.411,61.521 M50.689,62.945v-1.803
					l-3.366,0.535l0.007,1.818L50.689,62.945 M55.09,62.229l0.011-1.791L51.8,60.965l-0.006,1.801L55.09,62.229 M63.65,60.83
					l0.03-1.76l-3.179,0.508l-0.022,1.77L63.65,60.83"/>
			</g>
			<g>
				
					<polygon fill="#FFFFFF" stroke="#000000" stroke-width="0.5" stroke-linecap="round" stroke-linejoin="round" stroke-miterlimit="10" points="
					11.324,57.777 1.097,48.787 19.567,46.569 31.896,54.889 				"/>
			</g>
			<g>
				
					<polyline fill="#FFFFFF" stroke="#000000" stroke-width="0.5" stroke-linecap="round" stroke-linejoin="round" stroke-miterlimit="10" points="
					9.229,56.391 1.097,48.787 11.324,57.777 20.282,66.168 				"/>
			</g>
		</g>
	</g>
	
		<line fill="#FFFFFF" stroke="#000000" stroke-width="0.5" stroke-linecap="round" stroke-linejoin="round" stroke-miterlimit="10" x1="29.919" y1="53.555" x2="60.521" y2="49.182"/>
	
		<polyline fill="#FFFFFF" stroke="#000000" stroke-width="0.5" stroke-linecap="round" stroke-linejoin="round" stroke-miterlimit="10" points="
		31.896,54.889 56.245,51.375 56.923,49.697 	"/>
	
		<line fill="#FFFFFF" stroke="#000000" stroke-width="0.5" stroke-linecap="round" stroke-linejoin="round" stroke-miterlimit="10" x1="56.245" y1="51.375" x2="67.222" y2="57.361"/>
	
		<ellipse transform="matrix(1 0.0053 -0.0053 1 0.277 -0.0871)" fill="#FFFFFF" stroke="#000000" stroke-width="0.5" stroke-linecap="round" stroke-linejoin="round" stroke-miterlimit="10" cx="16.487" cy="51.949" rx="5.132" ry="2.621"/>
	
		<ellipse transform="matrix(1 0.0053 -0.0053 1 0.2725 -0.0868)" fill="#FFFFFF" stroke="#000000" stroke-width="0.5" stroke-linecap="round" stroke-linejoin="round" stroke-miterlimit="10" cx="16.424" cy="51.104" rx="5.132" ry="2.621"/>
	<g>
		
			<path fill="#FFFFFF" stroke="#000000" stroke-width="0.5" stroke-linecap="round" stroke-linejoin="round" stroke-miterlimit="10" d="
			M72.868,17.368v20.55c0,0.154,0.519,0.279,1.159,0.279c0.64,0,1.157-0.125,1.157-0.279v-20.55H72.868z"/>
		
			<ellipse fill="#FFFFFF" stroke="#000000" stroke-width="0.5" stroke-linecap="round" stroke-linejoin="round" stroke-miterlimit="10" cx="74.026" cy="17.368" rx="1.158" ry="0.369"/>
	</g>
	
		<line fill="#FFFFFF" stroke="#000000" stroke-width="0.5" stroke-linecap="round" stroke-linejoin="round" stroke-miterlimit="10" x1="20.282" y1="57.479" x2="23.451" y2="57.072"/>
	
		<line fill="#FFFFFF" stroke="#000000" stroke-width="0.5" stroke-linecap="round" stroke-linejoin="round" stroke-miterlimit="10" x1="21.182" y1="58.377" x2="24.351" y2="57.973"/>
	
		<line fill="#FFFFFF" stroke="#000000" stroke-width="0.5" stroke-linecap="round" stroke-linejoin="round" stroke-miterlimit="10" x1="22.226" y1="59.316" x2="25.395" y2="58.91"/>
	
		<line fill="#FFFFFF" stroke="#000000" stroke-width="0.5" stroke-linecap="round" stroke-linejoin="round" stroke-miterlimit="10" x1="38.911" y1="53.877" x2="47.937" y2="60.1"/>
	
		<line fill="#FFFFFF" stroke="#000000" stroke-width="0.5" stroke-linecap="round" stroke-linejoin="round" stroke-miterlimit="10" x1="94.669" y1="58.609" x2="26.772" y2="69.857"/>
	
		<line fill="#FFFFFF" stroke="#000000" stroke-width="0.5" stroke-linecap="round" stroke-linejoin="round" stroke-miterlimit="10" x1="92.812" y1="59.947" x2="24.915" y2="71.197"/>
	
		<ellipse fill="#FFFFFF" stroke="#000000" stroke-width="0.5" stroke-linecap="round" stroke-linejoin="round" stroke-miterlimit="10" cx="27.951" cy="66.168" rx="0.506" ry="0.598"/>
</g>
</svg>
